<mxfile host="app.diagrams.net" modified="2024-07-05T21:12:37.553Z" agent="Mozilla/5.0 (Windows NT 10.0; Win64; x64) AppleWebKit/537.36 (KHTML, like Gecko) Chrome/126.0.0.0 Safari/537.36" version="24.3.0" etag="pyafU9Ja1kNNLrg1MM09" type="github">
  <diagram name="Page-1" id="ankkkGUQus7kz9JpT0ZV">
    <mxGraphModel>
      <root>
        <mxCell id="0" />
        <mxCell id="1" parent="0" />
      </root>
    </mxGraphModel>
  </diagram>
</mxfile>
